<?xml version="1.0" encoding="UTF-8" standalone="no"?>
<!-- Created with Inkscape (http://www.inkscape.org/) -->

<svg
   width="622.93597"
   height="164.62834"
   viewBox="0 0 164.81848 43.557915"
   version="1.1"
   id="svg5"
   sodipodi:docname="logo.svg"
   inkscape:version="1.2.1 (0f2f062aeb, 2022-09-21, custom)"
   xmlns:inkscape="http://www.inkscape.org/namespaces/inkscape"
   xmlns:sodipodi="http://sodipodi.sourceforge.net/DTD/sodipodi-0.dtd"
   xmlns="http://www.w3.org/2000/svg"
   xmlns:svg="http://www.w3.org/2000/svg">
  <sodipodi:namedview
     id="namedview7"
     pagecolor="#ffffff"
     bordercolor="#666666"
     borderopacity="1.0"
     inkscape:showpageshadow="2"
     inkscape:pageopacity="0.0"
     inkscape:pagecheckerboard="0"
     inkscape:deskcolor="#d1d1d1"
     inkscape:document-units="mm"
     showgrid="false"
     inkscape:zoom="0.57505738"
     inkscape:cx="-113.0322"
     inkscape:cy="238.2371"
     inkscape:window-width="1864"
     inkscape:window-height="1053"
     inkscape:window-x="56"
     inkscape:window-y="27"
     inkscape:window-maximized="1"
     inkscape:current-layer="g1017" />
  <defs
     id="defs2">
    <rect
       x="127.38556"
       y="122.48239"
       width="698.97992"
       height="195.2178"
       id="rect129" />
    <rect
       x="127.38556"
       y="122.48239"
       width="698.97992"
       height="195.2178"
       id="rect332" />
  </defs>
  <g
     inkscape:label="Layer 1"
     inkscape:groupmode="layer"
     id="layer1"
     transform="translate(-46.442891,-33.386667)">
    <g
       id="g1017"
       transform="translate(4.6743027)">
      <g
         id="g1929"
         transform="translate(2.6458333)">
        <g
           id="g1961">
          <text
             xml:space="preserve"
             transform="matrix(0.26458333,0,0,0.26458333,5.5337624,-4.8071135)"
             id="text330"
             style="font-style:normal;font-weight:normal;font-size:170.667px;line-height:1.25;font-family:sans-serif;letter-spacing:-5px;white-space:pre;shape-inside:url(#rect332);display:inline;fill:#00a6dd;fill-opacity:1;stroke:none"><tspan
               x="127.38477"
               y="273.48272"
               id="tspan2116">        <tspan
   dx="10.000015"
   style="letter-spacing:-15px"
   id="tspan2112">.p</tspan><tspan
   dx="-9.9999924"
   id="tspan2114">y</tspan></tspan></text>
          <g
             aria-label="Cano"
             transform="matrix(0.26458333,0,0,0.26458333,2.8832742,-5.4583464)"
             id="text127"
             style="font-size:170.667px;line-height:1.25;letter-spacing:-5px;white-space:pre;shape-inside:url(#rect129);fill:#3cae23">
            <g
               id="g1849">
              <path
                 d="m 237.30165,158.64916 v 17.75004 q -8.50002,-7.91669 -18.1667,-11.83336 -9.58335,-3.91668 -20.41671,-3.91668 -21.33337,0 -32.66673,13.08336 -11.33336,13.00003 -11.33336,37.66675 0,24.58338 11.33336,37.66674 11.33336,13.00002 32.66673,13.00002 10.83336,0 20.41671,-3.91667 9.66668,-3.91668 18.1667,-11.83336 v 17.58337 q -8.83335,6.00001 -18.75004,9.00002 -9.83335,3 -20.83337,3 -28.25006,0 -44.50009,-17.25003 -16.25003,-17.33337 -16.25003,-47.25009 0,-30.00006 16.25003,-47.2501 16.25003,-17.33337 44.50009,-17.33337 11.16669,0 21.00004,3.00001 9.91669,2.91667 18.58337,8.83335 z"
                 id="path1019" />
              <path
                 id="path1021"
                 d="m 291.20449,176.76299 c -18.64584,0.039 -34.32777,13.04769 -38.33789,30.61133 h 15.40235 c 3.04195,-10.03685 11.89527,-17.27503 22.98437,-17.29101 12.99794,0.0425 22.99933,10.02954 24.04688,22.98242 v 1.5 h -21.5 c -13.94444,0 -24.44444,2.66666 -31.5,8 -7.00001,5.33333 -10.5,13.25 -10.5,23.75 0,9 2.80685,16.19509 8.41796,21.58398 5.66667,5.33333 13.27648,8 22.83204,8 7.55556,0 13.94575,-1.33334 19.16797,-4 5.22222,-2.72222 9.58203,-6.91731 13.08203,-12.58398 v 14.16602 h 15.33398 c -0.0238,-19.76842 0.0358,-39.62376 -0.002,-59.34571 -1.03227,-20.98184 -18.41856,-37.35699 -39.42578,-37.37305 z m 8.84571,49.80274 h 15.25 v 3.41602 c 0,10 -2.58334,18.02843 -7.75,24.08398 -5.11112,6 -11.91603,9 -20.41602,9 -6.16667,0 -11.0549,-1.58333 -14.66602,-4.75 -3.55554,-3.22223 -5.33398,-7.55556 -5.33398,-13 0,-6.83333 2.38824,-11.66666 7.16602,-14.5 4.77778,-2.83334 13.36112,-4.25 25.75,-4.25 z" />
              <path
                 d="m 434.80208,217.14928 v 56.33344 h -15.33337 v -55.83344 q 0,-13.25003 -5.16667,-19.83337 -5.16668,-6.58335 -15.50003,-6.58335 -12.4167,0 -19.58338,7.91668 -7.16668,7.91668 -7.16668,21.58338 v 52.7501 h -15.4167 V 180.1492 h 15.4167 v 14.50003 q 5.50001,-8.41668 12.91669,-12.58336 7.50002,-4.16667 17.25004,-4.16667 16.08336,0 24.33338,10.00002 8.25002,9.91669 8.25002,29.25006 z"
                 id="path1023" />
              <path
                 d="m 496.5522,190.89923 q -12.33336,0 -19.50004,9.66668 -7.16668,9.58335 -7.16668,26.33339 0,16.75003 7.08335,26.41672 7.16668,9.58335 19.58337,9.58335 12.25002,0 19.4167,-9.66669 7.16668,-9.66668 7.16668,-26.33338 0,-16.58337 -7.16668,-26.25006 -7.16668,-9.75001 -19.4167,-9.75001 z m 0,-13.00003 q 20.00004,0 31.41673,13.00003 11.41669,13.00002 11.41669,36.00007 0,22.91671 -11.41669,36.00007 -11.41669,13.00002 -31.41673,13.00002 -20.08338,0 -31.50007,-13.00002 -11.33335,-13.08336 -11.33335,-36.00007 0,-23.00005 11.33335,-36.00007 11.41669,-13.00003 31.50007,-13.00003 z"
                 id="path1025" />
            </g>
          </g>
        </g>
      </g>
    </g>
  </g>
</svg>
